<?xml version="1.0" encoding="UTF-8"?>
<svg width="512px" height="512px" viewBox="0 0 512 512" version="1.1" xmlns="http://www.w3.org/2000/svg" xmlns:xlink="http://www.w3.org/1999/xlink">
    <title>Frame</title>
    <defs>
        <linearGradient x1="99.2460917%" y1="78.183854%" x2="7.21128183%" y2="-2.24668542%" id="linearGradient-1">
            <stop stop-color="color(display-p3 1.000 1.000 1.000)" offset="0%"></stop>
            <stop stop-color="color(display-p3 0.943 0.943 0.943)" offset="45.0572917%"></stop>
            <stop stop-color="color(display-p3 1.000 1.000 1.000)" offset="100%"></stop>
        </linearGradient>
    </defs>
    <g id="message-text-duotone-regular-full" stroke="none" fill="none" transform="translate(0, -16)">
        <path d="M213.741719,460.618594 L287.118125,408.8 L383.25,408.8 C425.567188,408.8 459.9,374.467188 459.9,332.15 L459.9,153.3 C459.9,110.982813 425.567188,76.65 383.25,76.65 L127.75,76.65 C85.4328125,76.65 51.1,110.982813 51.1,153.3 L51.1,332.15 C51.1,374.467188 85.4328125,408.8 127.75,408.8 L153.3,408.8 L153.3,466.2875 C153.3,473.473438 157.292188,480.020625 163.679688,483.294219 C170.067188,486.567813 177.732188,486.08875 183.560781,481.936875 L213.741719,460.618594 Z M287.118125,370.475 C279.213594,370.475 271.46875,372.950156 265.001406,377.50125 C242.166094,393.629688 217.654063,410.875938 191.625,429.319844 L191.625,389.6375 C191.625,387.401875 191.225781,385.16625 190.507188,383.170156 C187.872344,375.744688 180.76625,370.475 172.4625,370.475 L127.75,370.475 C106.591406,370.475 89.425,353.308594 89.425,332.15 L89.425,153.3 C89.425,132.141406 106.591406,114.975 127.75,114.975 L383.25,114.975 C404.408594,114.975 421.575,132.141406 421.575,153.3 L421.575,332.15 C421.575,353.308594 404.408594,370.475 383.25,370.475 L287.118125,370.475 Z" id="Shape" fill="url(#linearGradient-1)" fill-rule="nonzero"></path>
        <g id="P" stroke-width="1" fill-rule="evenodd" transform="translate(169, 121)" fill="color(display-p3 1.000 1.000 1.000)">
            <path d="M54.9238281,194.996094 C65.4824219,194.996094 71.4589844,188.521484 71.4589844,177.265625 L71.4589844,150.570312 L93.3730469,150.570312 C124.550781,150.570312 143.675781,133.935547 143.675781,104.152344 C143.675781,76.1621094 124.849609,58.0332031 95.0664062,58.0332031 L60.1035156,58.0332031 C44.5644531,58.0332031 38.5878906,64.3085938 38.5878906,80.5449219 L38.5878906,177.265625 C38.5878906,188.621094 44.4648438,194.996094 54.9238281,194.996094 Z M71.5585938,126.066406 L71.5585938,83.4335938 L90.1855469,83.4335938 C103.632812,83.4335938 111.103516,91.203125 111.103516,104.75 C111.103516,120.488281 103.533203,126.066406 86.5,126.066406 L71.5585938,126.066406 Z" id="Shape" fill-rule="nonzero"></path>
        </g>
    </g>
</svg>