<?xml version="1.0" encoding="UTF-8"?>
<svg width="512px" height="512px" viewBox="0 0 512 512" version="1.1" xmlns="http://www.w3.org/2000/svg" xmlns:xlink="http://www.w3.org/1999/xlink">
    <title>Frame</title>
    <g id="Frame" stroke="none" fill="none">
        <g id="message-text-duotone-regular-full" transform="translate(0, -16)" fill="color(display-p3 1.000 1.000 1.000)" stroke="color(display-p3 1.000 1.000 1.000)">
            <path d="M213.741719,460.618594 L287.118125,408.8 L383.25,408.8 C425.567188,408.8 459.9,374.467188 459.9,332.15 L459.9,153.3 C459.9,110.982813 425.567188,76.65 383.25,76.65 L127.75,76.65 C85.4328125,76.65 51.1,110.982813 51.1,153.3 L51.1,332.15 C51.1,374.467188 85.4328125,408.8 127.75,408.8 L153.3,408.8 L153.3,466.2875 C153.3,473.473438 157.292188,480.020625 163.679688,483.294219 C170.067188,486.567813 177.732188,486.08875 183.560781,481.936875 L213.741719,460.618594 Z M287.118125,370.475 C279.213594,370.475 271.46875,372.950156 265.001406,377.50125 C242.166094,393.629688 217.654063,410.875938 191.625,429.319844 L191.625,389.6375 C191.625,387.401875 191.225781,385.16625 190.507188,383.170156 C187.872344,375.744688 180.76625,370.475 172.4625,370.475 L127.75,370.475 C106.591406,370.475 89.425,353.308594 89.425,332.15 L89.425,153.3 C89.425,132.141406 106.591406,114.975 127.75,114.975 L383.25,114.975 C404.408594,114.975 421.575,132.141406 421.575,153.3 L421.575,332.15 C421.575,353.308594 404.408594,370.475 383.25,370.475 L287.118125,370.475 Z" id="Shape" stroke-width="4" fill-rule="nonzero"></path>
            <g id="P" stroke-width="1" fill-rule="evenodd" transform="translate(169, 121)">
                <path d="M45.6512672,212.514648 C58.9138265,212.514648 66.4209355,204.383739 66.4209355,190.248467 L66.4209355,156.724103 L93.9470018,156.724103 C133.109087,156.724103 157.131836,135.833921 157.131836,98.4317393 C157.131836,63.2811939 133.484443,40.5146484 96.074016,40.5146484 L52.1574284,40.5146484 C32.6389449,40.5146484 25.1318359,48.3953757 25.1318359,68.7851939 L25.1318359,190.248467 C25.1318359,204.50883 32.5138265,212.514648 45.6512672,212.514648 Z M66.5460539,125.951739 L66.5460539,72.4128303 L89.9432103,72.4128303 C106.834206,72.4128303 116.218092,82.1699212 116.218092,99.1822848 C116.218092,118.946648 106.709087,125.951739 85.3138265,125.951739 L66.5460539,125.951739 Z" id="Shape" stroke-width="2" fill-rule="nonzero"></path>
            </g>
        </g>
    </g>
</svg>